<?xml version="1.0" encoding="utf-8"?>
<!-- Generator: Adobe Illustrator 19.1.0, SVG Export Plug-In . SVG Version: 6.00 Build 0)  -->
<svg version="1.1" id="Layer_1" xmlns="http://www.w3.org/2000/svg" xmlns:xlink="http://www.w3.org/1999/xlink" x="0px" y="0px"
	 viewBox="-1022 1598 546 262" style="enable-background:new -1022 1598 546 262;" xml:space="preserve">
<style type="text/css">
	.st0{fill:#CCA496;}
	.st1{fill:#FFFFFF;}
</style>
<g>
	<path class="st0" d="M-865,1632.9c-12.1,0-21.9,9.8-21.9,21.9c0,3.5,0.8,6.9,2.4,10l-11.8,11.8c3.8,2.6,7,5.8,9.6,9.6l11.8-11.8
		c3,1.6,6.4,2.4,10,2.4c12.1,0,21.9-9.8,21.9-21.9C-843,1642.7-852.9,1632.9-865,1632.9z M-865,1663.2c-2.2,0-4.3-0.9-5.9-2.5
		c-1.6-1.6-2.5-3.7-2.5-5.9c0-4.6,3.8-8.4,8.4-8.4s8.4,3.8,8.4,8.4C-856.6,1659.4-860.3,1663.2-865,1663.2z"/>
	<path class="st0" d="M-901.2,1617.9c-4.1-4.1-9.6-6.4-15.5-6.4c-5.9,0-11.4,2.3-15.5,6.4c-8.6,8.5-8.6,22.5,0,31
		c2.5,2.5,5.5,4.3,8.7,5.4v16.7c2.2-0.4,4.5-0.6,6.8-0.6s4.6,0.2,6.8,0.6v-16.7c3.3-1.1,6.2-2.9,8.7-5.4
		C-892.6,1640.3-892.6,1626.4-901.2,1617.9z M-910.8,1639.3c-1.6,1.6-3.7,2.5-5.9,2.5s-4.3-0.9-5.9-2.5c-3.3-3.3-3.3-8.6,0-11.9
		c1.6-1.6,3.7-2.5,5.9-2.5s4.3,0.9,5.9,2.5C-907.5,1630.7-907.5,1636.1-910.8,1639.3z"/>
	<path class="st0" d="M-948.9,1664.8c1.5-3,2.4-6.4,2.4-10c0-12.1-9.8-21.9-21.9-21.9c-12.1,0-21.9,9.8-21.9,21.9
		c0,12.1,9.8,21.9,21.9,21.9c3.6,0,7-0.9,10-2.4l11.8,11.8c2.6-3.8,5.8-7,9.6-9.6L-948.9,1664.8z M-968.4,1663.2L-968.4,1663.2
		c-4.6,0-8.4-3.8-8.4-8.4c0-4.6,3.8-8.4,8.4-8.4c4.6,0,8.4,3.8,8.4,8.4C-960.1,1659.4-963.8,1663.2-968.4,1663.2z"/>
	<path class="st0" d="M-828,1691.1c-4.1-4.1-9.6-6.4-15.5-6.4s-11.4,2.3-15.5,6.4c-2.5,2.5-4.3,5.5-5.4,8.7h-16.7
		c0.4,2.2,0.6,4.5,0.6,6.8c0,2.3-0.2,4.6-0.6,6.8h16.7c1.1,3.3,2.9,6.2,5.4,8.7c4.1,4.1,9.7,6.4,15.5,6.4c5.9,0,11.4-2.3,15.5-6.4
		C-819.5,1713.5-819.5,1699.6-828,1691.1z M-837.6,1712.5c-1.6,1.6-3.7,2.5-5.9,2.5s-4.3-0.9-5.9-2.5c-1.6-1.6-2.5-3.7-2.5-5.9
		c0-2.2,0.9-4.3,2.5-5.9c1.6-1.6,3.7-2.5,5.9-2.5s4.3,0.9,5.9,2.5C-834.3,1703.9-834.3,1709.2-837.6,1712.5z"/>
	<path class="st0" d="M-901.2,1764.2c-2.5-2.5-5.5-4.3-8.7-5.4v-16.7c-2.2,0.4-4.5,0.6-6.8,0.6s-4.6-0.2-6.8-0.6v16.7
		c-3.3,1.1-6.2,2.9-8.7,5.4c-8.5,8.5-8.5,22.5,0,31c4.1,4.1,9.6,6.4,15.5,6.4c5.9,0,11.4-2.3,15.5-6.4c4.1-4.1,6.4-9.7,6.4-15.5
		C-894.8,1773.9-897.1,1768.4-901.2,1764.2z M-910.8,1785.7c-1.6,1.6-3.7,2.5-5.9,2.5s-4.3-0.9-5.9-2.5c-3.3-3.3-3.3-8.6,0-11.9
		c1.6-1.6,3.7-2.5,5.9-2.5s4.3,0.9,5.9,2.5c1.6,1.6,2.5,3.7,2.5,5.9C-908.3,1782-909.2,1784.1-910.8,1785.7z"/>
	<path class="st0" d="M-952.3,1699.8H-969c-1.1-3.3-2.9-6.2-5.4-8.7c-4.1-4.1-9.6-6.4-15.5-6.4c-5.9,0-11.4,2.3-15.5,6.4
		c-8.5,8.5-8.5,22.5,0,31c4.1,4.1,9.6,6.4,15.5,6.4c5.9,0,11.4-2.3,15.5-6.4c2.5-2.5,4.3-5.5,5.4-8.7h16.7c-0.4-2.2-0.6-4.5-0.6-6.8
		C-953,1704.2-952.8,1702-952.3,1699.8z M-983.9,1712.5c-1.6,1.6-3.7,2.5-5.9,2.5s-4.3-0.9-5.9-2.5c-3.3-3.3-3.3-8.6,0-11.9
		c1.6-1.6,3.7-2.5,5.9-2.5s4.3,0.9,5.9,2.5c1.6,1.6,2.5,3.7,2.5,5.9C-981.5,1708.8-982.4,1710.9-983.9,1712.5z"/>
	<path class="st0" d="M-937.1,1736.5c-3.8-2.6-7-5.8-9.6-9.6l-11.8,11.8c-3-1.6-6.4-2.4-10-2.4c-12.1,0-21.9,9.8-21.9,21.9
		c0,12.1,9.8,21.9,21.9,21.9c5.9,0,11.4-2.3,15.5-6.4c4.1-4.1,6.4-9.6,6.4-15.5c0-3.5-0.8-6.9-2.4-10L-937.1,1736.5z M-962.5,1764.2
		c-1.6,1.6-3.7,2.5-5.9,2.5c-4.6,0-8.4-3.8-8.4-8.4c0-4.6,3.8-8.4,8.4-8.4c2.2,0,4.3,0.9,5.9,2.5s2.5,3.7,2.5,5.9
		C-960.1,1760.5-960.9,1762.6-962.5,1764.2z"/>
</g>
<path class="st0" d="M-865,1736.4c-12.1,0-21.9,9.8-21.9,21.9c0,12.1,9.8,21.9,21.9,21.9l0,0c12.1,0,21.9-9.8,21.9-21.9
	C-843,1746.2-852.9,1736.4-865,1736.4z M-865,1766.7c-4.6,0-8.4-3.8-8.4-8.4c0-4.6,3.8-8.4,8.4-8.4s8.4,3.8,8.4,8.4
	C-856.6,1762.9-860.3,1766.7-865,1766.7z"/>
<g>
	<path class="st1" d="M-889.7,1724c3.2-5,5.1-11,5.1-17.4c0-17.7-14.4-32.1-32.1-32.1s-32.1,14.4-32.1,32.1
		c0,17.7,14.4,32.1,32.1,32.1c6.4,0,12.4-1.9,17.4-5.1l11.4,11.4c2.3-4,5.6-7.3,9.6-9.6L-889.7,1724z M-899.7,1714l-12.2-12.2
		l-9.6,9.6l12.2,12.2c-2.3,1-4.8,1.6-7.4,1.6c-10.2,0-18.6-8.3-18.6-18.6c0-10.2,8.3-18.6,18.6-18.6c10.2,0,18.6,8.3,18.6,18.6
		C-898.1,1709.2-898.7,1711.7-899.7,1714z"/>
	<path class="st1" d="M-764.4,1793.5c0,18.5-0.8,22.5-5.5,29.2c-5,6.7-12.8,10.3-21.8,10.3s-17.2-3.8-21.8-10.3
		c-4.8-7.1-5.5-10.7-5.5-29.2v-55h17.2v63.8c0,11.8,2.7,16.2,9.9,16.2c7.6,0,10.3-4.2,10.3-16v-64h17.2V1793.5z"/>
	<path class="st1" d="M-632.7,1761.5c0,17.8-3.5,20.6-13.7,22.3c10.3,2.9,12.8,2.5,12.8,21v4.2c0,10.9,0,14.8,0,22.2H-651
		c0-7.4,0.2-14.7,0.2-24.6v0.3c0-16.4-2.3-17-8.4-17h-7.5v41.3h-17.4v-92.6c0,0,14.1,0,30.6,0
		C-636.9,1738.5-632.7,1743.7-632.7,1761.5z M-666.7,1775.6h10.1c5,0.2,5.9-3.3,5.9-10.6c0-7.4-1-10.6-5.9-10.6h-10.1V1775.6z"/>
	<path class="st1" d="M-602.1,1791.6v23.7h24.8v15.9h-42v-92.6h42v15.9h-24.8v21.2h22.1v16L-602.1,1791.6L-602.1,1791.6z"/>
	<path class="st1" d="M-500.1,1831.2h-19.5l-9.4-57.8l-7,57.8h-19.3l-15.9-92.6h16.8l9,63.2l8-63.2h15.5c0,0,10.5,51.2,11.3,63.2
		c0.2-4.2,0.4-5.3,0.6-7.4c0.4-7.3,6.7-55.9,6.7-55.9h16.8L-500.1,1831.2z"/>
	<path class="st1" d="M-731.8,1816.4L-731.8,1816.4c-2.4-2.4-3.4-6.8-3.4-14.1v-69.5c0-12,2.7-16.2,10.3-16.2
		c7.3,0,9.9,4.4,9.9,16.2v69.5c0,0.9,0,1.8-0.1,2.6l14.1,14.1c2.7-5.1,3.2-10.6,3.2-25.7v-51.8c0-18.5-0.6-22-5.5-29.2
		c-4.6-6.5-12.8-10.3-21.8-10.3s-16.8,3.8-21.8,10.3c-4.8,6.9-5.5,10.7-5.5,29.2v52c0,18.5,0.8,22.2,5.5,29.2
		c4.6,6.5,12.8,10.3,21.8,10.3c3.1,0,6-0.4,8.7-1.3L-731.8,1816.4z"/>
</g>
<polygon class="st0" points="-694.7,1848.6 -729.4,1813.8 -720.2,1804.6 -685.4,1839.3 "/>
</svg>
