<?xml version="1.0" encoding="utf-8"?>
<!-- Generator: Adobe Illustrator 19.1.0, SVG Export Plug-In . SVG Version: 6.00 Build 0)  -->
<svg version="1.1" id="Layer_1" xmlns="http://www.w3.org/2000/svg" xmlns:xlink="http://www.w3.org/1999/xlink" x="0px" y="0px"
	 viewBox="-1194 1628 202 202" style="enable-background:new -1194 1628 202 202;" xml:space="preserve">
<style type="text/css">
	.st0{fill:#FFFFFF;stroke:#375166;stroke-width:7;stroke-miterlimit:10;}
</style>
<g>
	<g>
		<path class="st0" d="M-1041,1654.9c-12.1,0-21.9,9.8-21.9,21.9c0,3.5,0.8,6.9,2.4,10l-11.8,11.8c3.8,2.6,7,5.8,9.6,9.6l11.8-11.8
			c3,1.6,6.4,2.4,10,2.4c12.1,0,21.9-9.8,21.9-21.9C-1019,1664.7-1028.9,1654.9-1041,1654.9z M-1041,1685.2c-2.2,0-4.3-0.9-5.9-2.5
			c-1.6-1.6-2.5-3.7-2.5-5.9c0-4.6,3.8-8.4,8.4-8.4s8.4,3.8,8.4,8.4C-1032.6,1681.4-1036.3,1685.2-1041,1685.2z"/>
		<path class="st0" d="M-1077.2,1639.9c-4.1-4.1-9.6-6.4-15.5-6.4c-5.9,0-11.4,2.3-15.5,6.4c-8.6,8.5-8.6,22.5,0,31
			c2.5,2.5,5.5,4.3,8.7,5.4v16.7c2.2-0.4,4.5-0.6,6.8-0.6c2.3,0,4.6,0.2,6.8,0.6v-16.7c3.3-1.1,6.2-2.9,8.7-5.4
			C-1068.6,1662.3-1068.6,1648.4-1077.2,1639.9z M-1086.8,1661.3c-1.6,1.6-3.7,2.5-5.9,2.5c-2.2,0-4.3-0.9-5.9-2.5
			c-3.3-3.3-3.3-8.6,0-11.9c1.6-1.6,3.7-2.5,5.9-2.5c2.2,0,4.3,0.9,5.9,2.5C-1083.5,1652.7-1083.5,1658.1-1086.8,1661.3z"/>
		<path class="st0" d="M-1124.9,1686.8c1.5-3,2.4-6.4,2.4-10c0-12.1-9.8-21.9-21.9-21.9s-21.9,9.8-21.9,21.9
			c0,12.1,9.8,21.9,21.9,21.9c3.6,0,7-0.9,10-2.4l11.8,11.8c2.6-3.8,5.8-7,9.6-9.6L-1124.9,1686.8z M-1144.4,1685.2L-1144.4,1685.2
			c-4.6,0-8.4-3.8-8.4-8.4c0-4.6,3.8-8.4,8.4-8.4s8.4,3.8,8.4,8.4C-1136.1,1681.4-1139.8,1685.2-1144.4,1685.2z"/>
		<path class="st0" d="M-1004,1713.1c-4.1-4.1-9.6-6.4-15.5-6.4s-11.4,2.3-15.5,6.4c-2.5,2.5-4.3,5.5-5.4,8.7h-16.7
			c0.4,2.2,0.6,4.5,0.6,6.8c0,2.3-0.2,4.6-0.6,6.8h16.7c1.1,3.3,2.9,6.2,5.4,8.7c4.1,4.1,9.7,6.4,15.5,6.4c5.9,0,11.4-2.3,15.5-6.4
			C-995.5,1735.5-995.5,1721.6-1004,1713.1z M-1013.6,1734.5c-1.6,1.6-3.7,2.5-5.9,2.5s-4.3-0.9-5.9-2.5c-1.6-1.6-2.5-3.7-2.5-5.9
			c0-2.2,0.9-4.3,2.5-5.9c1.6-1.6,3.7-2.5,5.9-2.5s4.3,0.9,5.9,2.5C-1010.3,1725.9-1010.3,1731.2-1013.6,1734.5z"/>
		<path class="st0" d="M-1077.2,1786.2c-2.5-2.5-5.5-4.3-8.7-5.4v-16.7c-2.2,0.4-4.5,0.6-6.8,0.6c-2.3,0-4.6-0.2-6.8-0.6v16.7
			c-3.3,1.1-6.2,2.9-8.7,5.4c-8.5,8.5-8.5,22.5,0,31c4.1,4.1,9.6,6.4,15.5,6.4c5.9,0,11.4-2.3,15.5-6.4c4.1-4.1,6.4-9.7,6.4-15.5
			C-1070.8,1795.9-1073.1,1790.4-1077.2,1786.2z M-1086.8,1807.7c-1.6,1.6-3.7,2.5-5.9,2.5c-2.2,0-4.3-0.9-5.9-2.5
			c-3.3-3.3-3.3-8.6,0-11.9c1.6-1.6,3.7-2.5,5.9-2.5c2.2,0,4.3,0.9,5.9,2.5c1.6,1.6,2.5,3.7,2.5,5.9
			C-1084.3,1804-1085.2,1806.1-1086.8,1807.7z"/>
		<path class="st0" d="M-1128.3,1721.8h-16.7c-1.1-3.3-2.9-6.2-5.4-8.7c-4.1-4.1-9.6-6.4-15.5-6.4s-11.4,2.3-15.5,6.4
			c-8.5,8.5-8.5,22.5,0,31c4.1,4.1,9.6,6.4,15.5,6.4s11.4-2.3,15.5-6.4c2.5-2.5,4.3-5.5,5.4-8.7h16.7c-0.4-2.2-0.6-4.5-0.6-6.8
			C-1129,1726.2-1128.8,1724-1128.3,1721.8z M-1159.9,1734.5c-1.6,1.6-3.7,2.5-5.9,2.5c-2.2,0-4.3-0.9-5.9-2.5
			c-3.3-3.3-3.3-8.6,0-11.9c1.6-1.6,3.7-2.5,5.9-2.5c2.2,0,4.3,0.9,5.9,2.5s2.5,3.7,2.5,5.9
			C-1157.5,1730.8-1158.4,1732.9-1159.9,1734.5z"/>
		<path class="st0" d="M-1113.1,1758.5c-3.8-2.6-7-5.8-9.6-9.6l-11.8,11.8c-3-1.6-6.4-2.4-10-2.4c-12.1,0-21.9,9.8-21.9,21.9
			c0,12.1,9.8,21.9,21.9,21.9c5.9,0,11.4-2.3,15.5-6.4c4.1-4.1,6.4-9.6,6.4-15.5c0-3.5-0.8-6.9-2.4-10L-1113.1,1758.5z
			 M-1138.5,1786.2c-1.6,1.6-3.7,2.5-5.9,2.5c-4.6,0-8.4-3.8-8.4-8.4c0-4.6,3.8-8.4,8.4-8.4c2.2,0,4.3,0.9,5.9,2.5s2.5,3.7,2.5,5.9
			C-1136.1,1782.5-1136.9,1784.6-1138.5,1786.2z"/>
	</g>
	<path class="st0" d="M-1065.7,1746c3.2-5,5.1-11,5.1-17.4c0-17.7-14.4-32.1-32.1-32.1c-17.7,0-32.1,14.4-32.1,32.1
		c0,17.7,14.4,32.1,32.1,32.1c6.4,0,12.4-1.9,17.4-5.1l11.4,11.4c2.3-4,5.6-7.3,9.6-9.6L-1065.7,1746z M-1075.7,1736l-12.2-12.2
		l-9.6,9.6l12.2,12.2c-2.3,1-4.8,1.6-7.4,1.6c-10.2,0-18.6-8.3-18.6-18.6c0-10.2,8.3-18.6,18.6-18.6c10.2,0,18.6,8.3,18.6,18.6
		C-1074.1,1731.2-1074.7,1733.7-1075.7,1736z"/>
	<path class="st0" d="M-1041,1758.4c-12.1,0-21.9,9.8-21.9,21.9c0,12.1,9.8,21.9,21.9,21.9l0,0c12.1,0,21.9-9.8,21.9-21.9
		C-1019,1768.2-1028.9,1758.4-1041,1758.4z M-1041,1788.7c-4.6,0-8.4-3.8-8.4-8.4c0-4.6,3.8-8.4,8.4-8.4s8.4,3.8,8.4,8.4
		C-1032.6,1784.9-1036.3,1788.7-1041,1788.7z"/>
</g>
</svg>
